<?xml version="1.0" standalone="no"?>
<!DOCTYPE svg PUBLIC "-//W3C//DTD SVG 20010904//EN"
 "http://www.w3.org/TR/2001/REC-SVG-20010904/DTD/svg10.dtd">
<svg version="1.0" xmlns="http://www.w3.org/2000/svg"
 width="640.000000pt" height="640.000000pt" viewBox="0 0 640.000000 640.000000"
 preserveAspectRatio="xMidYMid meet">
<metadata>
Created by potrace 1.16, written by Peter Selinger 2001-2019
</metadata>
<g transform="translate(0.000000,640.000000) scale(0.100000,-0.100000)"
fill="#000000" stroke="none">
<path d="M2465 5831 c-44 -26 -66 -65 -78 -137 l-11 -63 -27 20 c-110 78 -266
89 -319 22 -42 -54 -22 -145 62 -272 26 -41 47 -75 46 -76 -2 -1 -31 -17 -65
-35 -34 -18 -89 -57 -123 -87 -148 -134 -234 -313 -335 -698 -21 -77 -46 -171
-58 -210 -14 -49 -20 -101 -21 -175 -2 -167 27 -207 227 -315 l88 -47 -29 -18
c-74 -46 -126 -152 -138 -285 -15 -168 74 -349 203 -410 41 -20 122 -25 189
-12 l40 8 2 -129 c6 -392 158 -720 387 -833 l64 -31 -54 -107 c-100 -201 -175
-394 -175 -452 0 -18 12 -49 29 -74 16 -24 38 -80 50 -124 30 -119 73 -194
163 -284 l78 -78 0 -73 c0 -40 2 -75 5 -78 3 -3 17 -3 30 0 24 4 25 7 25 84 0
72 2 79 18 73 53 -23 168 -46 252 -51 185 -12 386 45 554 156 49 33 92 60 95
60 3 0 23 -18 45 -40 21 -22 65 -53 99 -70 51 -25 72 -30 136 -30 l76 0 -3
-90 -3 -90 35 0 36 0 0 90 c0 50 4 90 9 90 5 0 32 18 59 40 38 30 60 58 89
117 37 74 38 81 38 182 1 84 5 112 18 132 17 25 17 32 3 90 -41 178 -125 378
-222 527 l-47 73 45 47 c128 134 204 293 245 513 14 72 18 143 17 305 l-1 212
31 -9 c53 -15 127 -10 172 11 58 28 120 98 157 177 69 148 39 353 -69 473 -48
53 -96 77 -174 87 l-62 8 64 75 c83 97 236 242 337 320 95 74 103 94 57 135
-18 17 -98 138 -177 270 -310 521 -387 634 -519 765 -122 122 -248 193 -426
242 -66 18 -106 21 -244 22 -180 0 -270 -16 -431 -75 -78 -28 -249 -112 -305
-149 l-31 -20 -7 85 c-7 99 -37 186 -73 215 -33 26 -107 27 -148 1z m296
-1449 c33 -112 59 -206 56 -208 -2 -2 -35 10 -73 28 -62 30 -78 33 -161 33
-51 0 -93 3 -93 7 0 4 14 69 31 145 37 163 66 324 75 420 l7 68 49 -145 c27
-80 76 -237 109 -348z m1354 -134 c20 -151 107 -869 120 -990 17 -171 20 -413
4 -524 -24 -171 -100 -364 -183 -462 -110 -131 -246 -189 -448 -193 l-97 -2
-37 49 c-66 86 -117 119 -171 109 -43 -8 -56 -38 -51 -122 3 -40 0 -63 -7 -63
-5 0 -66 7 -135 15 -69 8 -184 15 -256 15 -147 0 -253 21 -327 64 -212 125
-332 386 -344 752 -6 172 -3 214 69 802 l51 422 42 0 c22 0 46 -5 52 -11 8 -8
24 -1 57 25 74 56 159 61 266 13 66 -30 174 -108 190 -137 8 -15 19 -20 37
-18 41 5 38 23 -12 77 -53 56 -51 60 40 79 80 17 111 21 275 32 205 14 200 13
200 62 l0 40 29 -31 c28 -30 32 -31 115 -31 114 0 246 15 381 44 61 13 115 24
122 25 7 1 14 -18 18 -41z m381 -394 c79 -38 132 -143 141 -280 7 -95 -6 -142
-61 -228 -48 -75 -97 -100 -182 -93 -120 9 -129 26 -162 290 l-26 213 23 37
c40 65 187 99 267 61z m-2384 -180 c46 -14 87 -30 92 -34 5 -5 -4 -106 -19
-232 -31 -250 -35 -262 -111 -298 -56 -28 -140 -24 -182 7 -42 31 -100 112
-122 171 -25 65 -27 197 -5 263 19 56 69 117 109 135 50 22 146 17 238 -12z
m1259 -1487 c59 -39 107 -116 226 -357 129 -259 167 -326 222 -383 55 -59 141
-97 141 -64 0 7 -17 19 -37 27 l-38 14 40 8 c22 5 85 10 140 11 l100 2 18 -55
c13 -39 17 -75 14 -125 -6 -110 -54 -188 -149 -240 -46 -26 -63 -30 -128 -30
-59 0 -85 5 -120 24 -113 59 -171 133 -287 367 -59 117 -159 348 -176 405 -3
9 -39 28 -83 43 -189 68 -401 172 -412 204 -5 17 112 16 273 -4 72 -9 139 -17
150 -18 19 -1 20 4 17 76 -5 116 19 142 89 95z m615 -155 c97 -145 213 -412
226 -517 l3 -29 -70 -3 c-38 -1 -121 -8 -182 -14 -113 -11 -113 -11 -133 12
-38 44 -129 206 -195 345 -37 77 -75 156 -86 177 -10 21 -19 39 -19 41 0 2 55
6 123 8 98 4 135 10 192 30 39 14 75 26 80 27 6 0 33 -34 61 -77z m-1161 -20
c32 -39 220 -134 382 -193 l92 -34 27 -65 c15 -36 56 -129 92 -208 35 -79 62
-145 60 -146 -1 -1 -76 -13 -165 -25 -133 -18 -269 -47 -408 -86 -16 -4 -25 3
-43 35 -22 38 -23 53 -25 223 -3 235 -20 250 -27 23 l-5 -163 -130 33 c-71 18
-158 40 -192 50 l-63 16 0 46 c0 67 111 334 207 499 l24 42 72 -6 c67 -5 74
-8 102 -41z m-185 -629 c142 -36 166 -50 205 -124 13 -24 12 -26 -21 -38 -35
-12 -51 -49 -16 -38 9 3 64 22 122 42 58 20 159 47 225 60 121 24 342 52 348
44 13 -17 107 -191 107 -197 0 -16 -115 -91 -202 -132 -127 -61 -221 -82 -368
-84 -76 0 -147 5 -180 13 -202 50 -342 197 -384 403 -9 42 -16 81 -16 87 0 10
-4 11 180 -36z"/>
<path d="M3437 4163 c-20 -19 5 -47 121 -135 138 -105 238 -157 359 -189 92
-23 117 -24 133 -3 20 23 -3 38 -95 58 -119 27 -243 90 -370 190 -103 80 -132
96 -148 79z"/>
<path d="M2643 3803 c-69 -24 -177 -133 -133 -133 6 0 24 15 41 34 28 32 84
65 136 81 23 6 23 6 -4 -47 -24 -46 -27 -65 -27 -143 0 -70 5 -100 21 -137 42
-93 107 -101 153 -18 35 64 41 202 12 278 -21 56 -16 62 28 37 27 -15 80 -20
80 -7 0 4 -34 22 -75 40 -84 36 -159 41 -232 15z"/>
<path d="M3565 3768 c-82 -36 -82 -35 -68 -49 7 -7 27 -4 64 10 30 12 55 21
57 21 1 0 -4 -12 -12 -27 -30 -60 -38 -182 -16 -261 24 -89 92 -129 137 -79
32 34 42 60 52 129 11 76 -1 164 -30 220 l-20 40 23 -7 c46 -15 94 -44 127
-79 19 -20 41 -36 48 -36 43 0 -31 80 -109 120 -84 42 -156 41 -253 -2z"/>
<path d="M3120 2706 c0 -13 11 -16 63 -16 132 -1 299 -59 410 -143 48 -37 67
-45 67 -27 0 15 -99 89 -164 122 -93 47 -172 68 -278 75 -87 5 -98 4 -98 -11z"/>
<path d="M5083 5215 c-100 -27 -160 -69 -182 -128 -16 -41 -14 -65 10 -113 43
-90 131 -107 228 -44 38 24 66 33 112 37 58 6 61 5 51 -13 -6 -10 -73 -80
-150 -155 -216 -210 -273 -304 -258 -421 8 -57 46 -147 81 -194 28 -36 135
-94 174 -94 44 0 91 36 113 87 19 43 20 54 10 119 -18 115 -12 126 158 295
172 170 202 219 204 329 0 36 -6 83 -13 104 -18 52 -84 122 -144 153 -97 49
-285 67 -394 38z"/>
<path d="M4970 4028 c-38 -20 -70 -92 -70 -158 0 -65 20 -104 76 -146 30 -24
47 -29 93 -29 104 0 163 55 169 158 3 52 0 67 -20 97 -42 64 -187 109 -248 78z"/>
</g>
</svg>
