<?xml version="1.0" standalone="no"?>
<!DOCTYPE svg PUBLIC "-//W3C//DTD SVG 20010904//EN"
 "http://www.w3.org/TR/2001/REC-SVG-20010904/DTD/svg10.dtd">
<svg version="1.0" xmlns="http://www.w3.org/2000/svg"
 width="750.000000pt" height="500.000000pt" viewBox="0 0 750.000000 500.000000"
 preserveAspectRatio="xMidYMid meet">
<metadata>
Created by potrace 1.16, written by Peter Selinger 2001-2019
</metadata>
<g transform="translate(0.000000,500.000000) scale(0.100000,-0.100000)"
fill="#000000" stroke="none">
<path d="M4762 4437 c-18 -18 -32 -36 -32 -40 0 -13 23 -7 42 10 17 16 18 10
18 -170 0 -160 2 -187 15 -187 13 0 15 27 15 187 0 180 1 186 18 170 20 -18
42 -22 42 -9 0 11 -64 72 -76 72 -6 0 -24 -15 -42 -33z"/>
<path d="M4641 4266 c-35 -36 -26 -63 10 -30 19 17 19 15 19 -89 0 -58 -5
-117 -11 -131 -25 -53 -45 -56 -444 -56 -289 0 -366 -3 -363 -12 4 -10 87 -14
364 -16 313 -2 365 0 402 14 69 26 82 56 82 193 0 110 1 113 18 98 20 -18 42
-22 42 -9 0 11 -64 72 -76 72 -6 0 -25 -15 -43 -34z"/>
<path d="M2880 3940 c-42 -42 -7 -120 55 -120 57 0 90 68 55 113 -27 34 -80
37 -110 7z"/>
<path d="M3855 3838 c-3 -7 -4 -308 -3 -668 l3 -655 685 0 685 0 3 668 2 667
-685 0 c-539 0 -687 -3 -690 -12z m540 -343 c-254 -249 -297 -286 -313 -270
-4 3 115 125 263 270 208 203 276 264 295 264 20 0 -24 -48 -245 -264z m554
229 c-18 -20 -96 -94 -171 -166 -109 -102 -139 -127 -144 -113 -9 24 291 314
325 314 24 1 24 0 -10 -35z m-11 -295 c-193 -189 -231 -220 -246 -204 -4 4 94
105 218 225 182 176 226 214 228 197 3 -16 -44 -67 -200 -218z m-388 127 c0
-20 -326 -330 -351 -334 -10 -2 -19 0 -19 4 0 12 344 343 358 344 6 0 12 -6
12 -14z"/>
<path d="M5342 3830 c-50 -47 -17 -120 54 -120 39 0 64 27 64 68 0 64 -72 95
-118 52z"/>
<path d="M2402 3671 c-160 -52 -214 -80 -141 -73 18 1 29 -3 29 -11 0 -8 -43
-27 -105 -47 -58 -19 -105 -39 -105 -45 0 -15 31 -108 39 -117 3 -4 69 13 146
37 77 25 143 44 147 43 4 -2 -40 -84 -98 -182 -73 -124 -102 -182 -95 -189 6
-6 13 -9 15 -6 2 2 48 78 101 169 53 91 101 169 106 175 5 5 9 -62 9 -169 0
-138 3 -177 13 -174 9 3 13 51 17 174 l5 169 84 -145 c109 -187 121 -204 134
-191 6 6 -25 68 -97 190 -58 99 -109 186 -112 194 -4 12 29 26 155 67 89 28
161 55 161 59 0 14 -33 106 -42 118 -7 8 -35 2 -110 -23 -116 -39 -118 -39
-118 -20 0 8 11 17 25 20 24 6 33 20 18 29 -5 3 -86 -21 -181 -52z"/>
<path d="M3387 3613 c-4 -3 -7 -209 -7 -457 l0 -451 33 -93 c18 -52 37 -94 42
-94 6 0 24 37 42 83 l32 84 1 468 0 467 -68 0 c-38 0 -72 -3 -75 -7z m53 -513
c0 -247 -4 -380 -10 -380 -6 0 -10 133 -10 380 0 247 4 380 10 380 6 0 10
-133 10 -380z m60 0 c0 -247 -4 -380 -10 -380 -6 0 -10 133 -10 380 0 247 4
380 10 380 6 0 10 -133 10 -380z"/>
<path d="M3562 3068 l3 -553 98 -3 c62 -2 97 1 97 8 0 5 0 254 0 553 l0 542
-100 3 -100 3 2 -553z m168 513 c0 -5 -12 -11 -27 -13 -17 -2 -28 -9 -28 -18
0 -9 11 -16 28 -18 34 -4 35 -20 2 -24 -14 -2 -26 -7 -26 -13 0 -5 12 -11 26
-13 14 -2 25 -10 25 -17 0 -9 -6 -12 -15 -9 -18 7 -47 -14 -39 -27 3 -5 16 -9
30 -9 33 0 31 -18 -3 -22 -17 -2 -28 -9 -28 -18 0 -9 11 -16 28 -18 34 -4 35
-20 2 -24 -14 -2 -26 -7 -26 -13 0 -5 12 -11 26 -13 14 -2 25 -9 25 -17 0 -8
-11 -15 -25 -17 -14 -2 -26 -7 -26 -13 0 -5 12 -11 26 -13 33 -4 32 -20 -2
-24 -17 -2 -28 -9 -28 -18 0 -9 11 -16 28 -18 34 -4 35 -20 2 -24 -14 -2 -26
-7 -26 -13 0 -5 12 -11 26 -13 14 -2 25 -9 25 -17 0 -8 -11 -15 -25 -17 -14
-2 -26 -7 -26 -13 0 -5 12 -11 26 -13 33 -4 32 -20 -2 -24 -17 -2 -28 -9 -28
-18 0 -9 11 -16 28 -18 15 -2 27 -7 27 -12 0 -5 -12 -10 -27 -12 -16 -2 -28
-7 -28 -13 0 -5 12 -11 28 -13 15 -2 27 -9 27 -17 0 -8 -12 -15 -27 -17 -16
-2 -28 -7 -28 -13 0 -5 12 -11 28 -13 15 -2 27 -7 27 -12 0 -5 -12 -10 -27
-12 -17 -2 -28 -9 -28 -18 0 -9 11 -16 28 -18 34 -4 36 -22 3 -22 -28 0 -44
-19 -26 -30 7 -4 21 -5 31 -3 13 4 19 0 19 -10 0 -9 -10 -17 -25 -19 -14 -2
-26 -7 -26 -13 0 -5 12 -11 26 -13 33 -4 32 -20 -2 -24 -17 -2 -28 -9 -28 -18
0 -9 11 -16 28 -18 34 -4 36 -22 3 -22 -14 0 -28 -5 -32 -11 -9 -14 16 -30 39
-25 10 2 17 -2 17 -9 0 -8 -11 -15 -25 -17 -14 -2 -26 -7 -26 -13 0 -5 12 -11
26 -13 53 -7 22 -22 -45 -22 l-70 0 0 520 0 520 70 0 c39 0 70 -4 70 -9z"/>
<path d="M5437 3613 c-4 -3 -7 -42 -7 -85 0 -77 0 -78 -25 -78 l-25 0 0 -185
0 -185 25 0 c20 0 25 -5 25 -25 0 -18 7 -26 24 -31 41 -10 61 -1 64 28 3 21 9
27 30 30 25 3 27 7 30 56 4 62 15 70 73 53 57 -17 79 -57 79 -144 0 -78 -18
-130 -52 -148 -15 -9 -78 -15 -191 -17 -121 -3 -167 -7 -164 -16 2 -7 35 -12
85 -14 91 -3 114 -22 27 -22 l-55 0 0 -45 0 -45 55 0 55 0 0 -70 0 -70 -86 0
-85 0 3 -42 3 -43 245 0 245 0 0 40 0 40 -55 6 c-30 3 -63 9 -73 14 -29 12
-47 60 -47 123 0 60 0 60 33 66 40 7 101 57 125 99 24 45 24 229 0 273 -25 45
-82 92 -123 100 -29 5 -35 11 -35 31 0 14 -13 37 -30 55 -20 19 -30 40 -30 59
0 26 -4 29 -30 29 l-30 0 0 85 0 85 -38 0 c-21 0 -42 -3 -45 -7z m113 -202 c0
-5 -15 -12 -34 -15 -45 -9 -86 -56 -86 -101 0 -45 41 -92 86 -101 31 -6 34
-10 34 -39 l0 -33 -70 -4 -70 -3 0 153 0 152 70 0 c39 0 70 -4 70 -9z m55
-655 c1 -70 5 -99 18 -119 9 -15 17 -29 17 -32 0 -3 -25 -5 -55 -5 l-55 0 0
125 0 125 38 0 37 0 0 -94z"/>
<path d="M1660 3325 c-109 -31 -190 -100 -236 -200 -59 -128 -36 -269 62 -374
34 -37 77 -71 112 -88 51 -25 68 -28 157 -28 87 0 107 3 157 27 109 51 187
150 206 258 l8 45 207 3 c233 3 262 -3 297 -60 41 -67 17 -147 -53 -179 -37
-16 -67 -19 -243 -19 -188 0 -202 -1 -219 -20 -26 -29 -24 -79 4 -102 22 -17
50 -18 437 -18 l414 0 0 -70 0 -70 -389 0 c-386 0 -388 0 -422 -23 -19 -12
-41 -37 -49 -54 l-15 -33 -140 0 c-89 -1 -151 -5 -170 -14 -24 -10 -34 -10
-56 1 -21 10 -88 13 -295 11 l-269 -3 -3 -27 c-3 -24 -8 -28 -33 -28 l-29 0 2
-412 3 -413 655 0 655 0 0 410 0 410 -27 3 c-21 3 -27 9 -30 30 l-3 27 -112 3
c-70 2 -113 7 -113 13 0 6 13 24 29 40 l29 29 391 0 390 0 3 -82 3 -83 43 -3
42 -3 0 85 0 86 70 0 c63 0 73 3 102 29 27 24 33 36 33 71 0 35 -6 47 -33 71
-29 26 -39 29 -102 29 -55 0 -70 3 -70 15 0 8 12 18 28 21 76 19 158 88 190
163 8 20 15 65 16 102 0 55 -5 74 -30 120 -72 126 -226 180 -360 124 -45 -19
-112 -81 -137 -129 -32 -62 -31 -175 4 -241 29 -57 100 -116 160 -134 22 -7
39 -18 39 -26 0 -13 -57 -15 -409 -15 -408 0 -410 0 -425 22 -11 15 -12 26 -6
39 9 16 31 18 222 21 192 3 216 5 247 23 51 30 74 67 79 127 5 67 -23 113 -88
146 -42 21 -56 22 -251 22 l-207 0 -11 46 c-7 26 -25 72 -41 104 -71 140 -261
219 -420 175z m252 -54 c25 -11 57 -35 74 -52 l29 -32 -30 7 c-89 21 -135 15
-135 -19 0 -8 -11 -22 -25 -31 -27 -18 -33 -55 -12 -73 8 -6 33 -8 64 -5 35 5
53 3 58 -6 6 -10 1 -11 -19 -6 -63 16 -136 -30 -136 -85 0 -33 38 -79 65 -79
20 0 25 -7 31 -37 10 -54 32 -93 52 -93 31 0 62 29 62 59 0 16 14 58 30 95 24
51 35 66 51 66 20 0 21 -4 16 -50 -12 -99 -84 -193 -186 -242 -51 -25 -189
-37 -232 -20 l-26 10 26 54 c14 29 43 69 64 90 53 52 51 62 -27 121 -65 49
-101 49 -138 3 -33 -41 -34 -51 -9 -92 11 -18 23 -54 26 -80 4 -28 17 -59 29
-73 l21 -24 -34 18 c-97 49 -167 154 -178 267 -7 75 8 97 26 38 12 -41 43 -70
74 -70 15 0 17 5 12 34 -6 28 -3 35 12 40 11 3 35 26 53 51 24 32 45 48 72 56
26 6 43 19 53 38 8 16 12 31 9 33 -2 3 9 11 26 18 17 7 40 26 52 43 20 27 20
31 5 42 -9 7 -17 15 -17 18 0 9 67 -10 112 -32z m-329 -38 c-13 -8 -23 -22
-23 -30 0 -18 58 -43 102 -44 l33 -1 -40 -14 c-27 -9 -54 -31 -80 -64 -22 -28
-45 -50 -52 -50 -7 0 -18 -9 -25 -19 -11 -18 -14 -15 -33 32 -19 46 -20 55 -8
79 21 43 75 100 108 114 40 17 45 16 18 -3z m416 -70 c39 -5 45 -9 61 -47 10
-22 22 -53 25 -68 6 -24 4 -28 -13 -28 -11 0 -30 -8 -41 -18 -23 -18 -67 -114
-77 -170 -8 -43 -26 -36 -39 15 -12 48 -38 81 -69 85 -24 3 -35 50 -16 72 14
18 62 27 76 15 15 -12 74 1 81 18 14 37 -84 85 -128 62 -30 -15 -28 3 4 43 28
34 36 38 62 33 17 -4 50 -9 74 -12z m1125 -121 c50 -35 76 -84 76 -145 0 -137
-143 -219 -270 -154 -140 70 -124 267 27 323 53 20 119 10 167 -24z m-1438
-124 c24 -17 44 -39 44 -47 0 -9 -15 -28 -34 -43 -19 -15 -40 -43 -46 -63 -16
-50 -27 -44 -32 19 -3 34 -12 63 -26 81 l-22 27 23 29 c28 36 39 36 93 -3z
m1529 -373 c14 -13 25 -33 25 -45 0 -11 -11 -32 -25 -45 -21 -22 -33 -25 -90
-25 l-65 0 0 70 0 70 65 0 c57 0 69 -3 90 -25z m-1494 -265 c18 -10 19 -25 19
-388 l0 -377 -275 3 -275 3 0 384 0 385 256 0 c157 0 263 -4 275 -10z m609
-375 l0 -385 -264 0 c-145 0 -271 -3 -280 -6 -14 -6 -16 31 -16 369 l0 376 22
15 c19 14 63 16 280 16 l258 0 0 -385z"/>
<path d="M1282 2142 c-9 -6 -12 -33 -10 -98 l3 -89 190 0 190 0 3 89 c2 65 -1
92 -10 98 -17 10 -349 10 -366 0z m338 -97 l0 -65 -155 0 -155 0 0 65 0 65
155 0 155 0 0 -65z"/>
<path d="M827 2862 c-37 -41 -7 -122 44 -122 23 0 60 18 71 34 14 21 8 73 -10
89 -25 23 -85 22 -105 -1z"/>
<path d="M6014 2819 c-46 -13 -90 -59 -105 -107 -32 -109 72 -218 188 -196 22
4 53 22 76 43 68 64 70 156 4 219 -48 47 -99 60 -163 41z m116 -44 c79 -41 79
-169 0 -210 -58 -30 -140 -12 -174 37 -9 13 -16 43 -16 71 0 42 5 54 34 83 29
29 41 34 80 34 26 0 60 -7 76 -15z"/>
<path d="M6642 2457 c-31 -32 -41 -57 -23 -57 5 0 15 7 22 17 12 14 15 -40 19
-367 4 -294 8 -384 18 -388 9 -3 12 78 12 382 0 215 4 386 9 386 5 0 14 -7 21
-15 15 -18 30 -19 30 -2 0 12 -60 77 -71 77 -3 0 -19 -15 -37 -33z"/>
<path d="M4876 2418 c-9 -12 -16 -27 -16 -33 0 -18 -125 -75 -141 -64 -59 37
-119 -41 -69 -91 15 -15 20 -33 20 -73 0 -40 -5 -57 -20 -70 -42 -36 -10 -102
47 -95 20 2 33 12 45 38 25 48 116 95 153 78 19 -8 31 -8 50 0 22 10 34 7 89
-20 51 -25 65 -37 70 -59 6 -34 44 -47 82 -30 32 14 34 74 4 93 -16 10 -20 24
-20 68 0 44 4 58 20 68 24 15 27 64 4 86 -18 18 -55 21 -71 5 -15 -15 -143 49
-143 72 0 48 -76 67 -104 27z m72 -82 c13 8 32 4 84 -19 38 -17 68 -35 68 -41
0 -7 -29 -26 -65 -44 -54 -26 -70 -30 -86 -21 -15 8 -28 8 -49 -1 -24 -10 -35
-8 -89 19 -33 17 -61 38 -61 46 0 9 27 27 63 43 51 24 67 27 90 18 19 -7 33
-7 45 0z m-148 -136 c33 -17 60 -36 60 -44 0 -19 -115 -69 -140 -61 -17 5 -20
15 -20 65 0 54 6 66 33 69 4 1 34 -13 67 -29z m324 24 c22 -9 23 -122 1 -130
-21 -8 -145 46 -145 62 0 8 26 27 58 43 63 33 64 33 86 25z"/>
<path d="M3362 2423 c-19 -8 -43 -60 -35 -80 19 -54 84 -72 123 -33 54 54 -14
143 -88 113z"/>
<path d="M3857 2423 c-4 -3 -7 -16 -7 -29 0 -34 -40 -40 -64 -10 -18 24 -20
24 -52 8 -35 -16 -41 -31 -24 -61 14 -28 -24 -60 -50 -43 -30 19 -39 15 -57
-24 -18 -36 -14 -44 21 -57 5 -2 6 -15 3 -29 -5 -20 -14 -28 -35 -30 -24 -3
-27 -7 -30 -45 -3 -42 -2 -43 26 -43 22 0 31 -6 36 -22 9 -34 8 -36 -14 -43
-25 -8 -26 -36 -1 -66 16 -20 22 -22 44 -12 21 10 28 9 43 -8 14 -16 15 -23 6
-44 -11 -23 -9 -27 21 -45 40 -25 41 -25 60 4 23 35 67 25 67 -15 0 -28 2 -29
45 -29 41 0 45 2 45 25 0 37 47 46 72 15 18 -23 20 -23 53 -7 38 18 41 27 23
57 -10 15 -9 22 6 39 17 19 21 19 47 5 28 -14 29 -14 49 18 25 41 25 45 -2 59
-13 6 -24 13 -26 14 -1 1 2 14 7 28 7 18 19 27 38 29 24 3 28 8 31 40 3 35 1
37 -29 40 -26 2 -34 9 -40 31 -6 24 -4 30 17 39 29 13 29 15 4 56 -22 36 -23
37 -50 20 -17 -11 -23 -9 -42 10 -17 17 -20 24 -10 34 21 21 13 38 -24 55 -35
17 -36 17 -53 -5 -13 -18 -23 -22 -44 -17 -22 6 -27 13 -27 36 0 27 -3 29 -38
29 -21 0 -42 -3 -45 -7z m103 -211 c76 -42 89 -135 25 -199 -28 -28 -40 -33
-79 -33 -84 0 -137 46 -138 121 0 46 21 83 65 109 40 25 82 25 127 2z"/>
<path d="M3832 2175 c-39 -32 -48 -74 -27 -114 34 -67 121 -77 169 -20 79 93
-49 212 -142 134z"/>
<path d="M5320 2045 l0 -385 453 2 452 3 0 380 0 380 -452 3 -453 2 0 -385z
m878 228 l-3 -68 -422 -3 -423 -2 0 70 0 70 425 0 426 0 -3 -67z m-8 -173 l0
-70 -420 0 -420 0 0 70 0 70 420 0 420 0 0 -70z m8 -252 l-3 -153 -422 -3
-423 -2 0 155 0 155 425 0 426 0 -3 -152z"/>
<path d="M5442 1972 c-9 -6 -12 -28 -10 -73 l3 -64 100 0 100 0 0 70 0 70 -90
3 c-49 1 -96 -2 -103 -6z"/>
<path d="M5677 1974 c-4 -4 -7 -38 -7 -76 l0 -68 100 0 101 0 -3 73 -3 72 -90
3 c-50 1 -94 0 -98 -4z"/>
<path d="M5912 1971 c-9 -5 -12 -27 -10 -72 l3 -64 100 0 100 0 3 64 c2 45 -1
67 -10 72 -7 5 -49 9 -93 9 -44 0 -86 -4 -93 -9z"/>
<path d="M2550 2307 c-54 -27 -57 -102 -4 -126 35 -16 47 -14 78 10 65 51 0
153 -74 116z"/>
<path d="M896 2111 c-25 -26 -34 -41 -26 -46 6 -4 20 1 30 10 19 18 20 13 22
-280 2 -228 6 -299 16 -303 9 -3 12 61 12 299 0 292 1 302 18 286 23 -21 42
-22 42 -3 0 11 -63 76 -73 76 -2 0 -20 -17 -41 -39z"/>
<path d="M4816 2069 c-24 -19 -26 -26 -26 -100 l0 -79 30 0 30 0 0 -115 0
-116 73 3 72 3 1 110 2 110 26 3 c25 3 26 5 26 80 0 42 -4 82 -8 88 -15 24
-54 34 -125 34 -60 0 -79 -4 -101 -21z m192 -21 c14 -14 16 -128 3 -128 -6 0
-11 24 -13 53 -2 35 -7 52 -16 52 -11 0 -14 -36 -15 -164 -1 -118 -5 -165 -14
-168 -9 -3 -13 19 -15 78 -2 55 -7 84 -15 87 -10 3 -13 -18 -13 -82 0 -70 -3
-86 -15 -86 -13 0 -15 26 -15 170 0 144 -2 170 -15 170 -12 0 -15 -13 -15 -55
0 -42 -3 -55 -15 -55 -12 0 -15 13 -15 58 0 32 5 63 12 70 7 7 42 12 88 12 46
0 81 -5 88 -12z"/>
<path d="M6400 2082 c-74 -35 -90 -72 -90 -202 0 -80 4 -113 18 -140 21 -43
75 -80 117 -80 42 0 96 37 117 80 14 26 18 60 18 133 0 107 -12 147 -53 186
-27 24 -98 37 -127 23z m119 -57 c25 -25 26 -30 26 -150 0 -123 0 -125 -28
-152 -22 -22 -37 -28 -72 -28 -35 0 -50 6 -72 28 -28 27 -28 29 -28 151 0 110
2 126 20 146 11 12 29 26 40 31 32 14 87 2 114 -26z"/>
<path d="M2905 2017 c-117 -39 -198 -110 -248 -215 -28 -59 -32 -77 -32 -152
0 -114 26 -168 134 -274 95 -92 101 -108 101 -254 0 -96 2 -105 24 -125 13
-12 26 -34 28 -47 3 -25 4 -25 103 -25 98 0 100 0 103 24 2 14 17 37 33 52 29
27 29 28 29 137 0 61 5 123 10 138 6 15 47 63 90 106 113 111 125 138 125 268
0 101 -1 108 -34 168 -44 80 -124 154 -199 183 -70 27 -208 35 -267 16z m268
-54 c160 -75 240 -245 192 -409 -15 -51 -27 -69 -91 -131 -81 -78 -124 -136
-124 -164 0 -18 -10 -19 -129 -19 l-129 0 -13 37 c-7 24 -47 73 -105 134 -103
108 -116 136 -115 244 2 255 276 419 514 308z"/>
<path d="M4910 1392 c0 -219 -2 -240 -18 -255 -16 -14 -43 -17 -171 -17 -142
0 -153 1 -146 18 13 34 9 37 -47 40 -43 2 -58 7 -58 17 0 12 23 15 128 15 81
0 136 5 152 13 33 17 70 74 70 109 0 58 -57 128 -105 128 -14 0 -31 12 -46 34
-59 87 -192 109 -272 46 -15 -12 -40 -20 -64 -20 -52 0 -102 -29 -136 -79 -16
-22 -35 -41 -43 -41 -8 0 -26 -12 -39 -26 -36 -39 -34 -96 4 -135 28 -28 33
-29 126 -29 93 0 95 -1 85 -20 -17 -31 -4 -40 56 -40 41 0 54 -4 54 -15 0 -13
-69 -15 -562 -15 -543 0 -561 1 -545 18 18 20 22 42 9 42 -12 0 -72 -64 -72
-76 0 -14 53 -64 68 -64 15 0 15 23 0 38 -9 9 112 12 545 12 l557 0 0 -79 c0
-44 4 -82 9 -86 6 -3 31 33 56 80 l47 85 158 0 c170 0 201 7 219 47 7 15 11
108 11 258 0 202 -2 235 -15 235 -13 0 -15 -33 -15 -238z m-312 131 c15 -11
38 -36 51 -56 18 -28 31 -37 52 -37 15 0 41 -11 56 -24 23 -20 28 -32 28 -71
0 -39 -5 -51 -28 -71 -27 -23 -35 -24 -157 -24 l-129 0 -3 82 c-2 45 -7 83
-13 85 -5 1 -30 -35 -54 -82 l-44 -85 -96 0 c-115 0 -141 12 -141 65 0 24 7
39 26 54 15 12 33 21 40 21 8 0 23 18 34 40 24 47 64 70 121 70 23 0 50 6 58
14 55 50 146 58 199 19z"/>
<path d="M5147 1574 c-13 -14 -7 -74 8 -80 11 -5 15 -24 15 -80 0 -66 -2 -74
-22 -85 -13 -6 -40 -28 -61 -48 -102 -97 -74 -265 56 -333 81 -43 202 -22 264
44 54 58 69 167 33 237 -20 40 -85 101 -107 101 -21 0 -18 156 3 164 11 4 14
17 12 43 l-3 38 -95 3 c-53 1 -99 0 -103 -4z m173 -39 c0 -8 -7 -15 -15 -15
-12 0 -15 -18 -15 -105 0 -78 3 -105 13 -105 26 0 88 -52 107 -90 l20 -40
-185 0 c-102 0 -185 2 -185 5 0 4 6 18 14 33 18 34 51 65 94 86 l32 17 0 84
c0 83 0 84 27 87 48 6 39 28 -11 28 -34 0 -46 4 -46 15 0 12 15 15 75 15 60 0
75 -3 75 -15z m110 -409 c0 -57 -45 -122 -105 -153 -45 -24 -124 -20 -175 8
-48 27 -90 91 -90 137 l0 32 185 0 185 0 0 -24z"/>
<path d="M5473 1568 c-12 -6 -27 -23 -33 -39 -31 -75 91 -132 129 -60 19 34
13 68 -15 90 -29 23 -48 25 -81 9z"/>
<path d="M6065 1571 c-16 -4 -41 -13 -55 -20 -39 -20 -100 -83 -100 -103 0
-23 58 -80 106 -103 56 -28 165 -27 220 2 42 22 104 85 104 105 0 6 -20 31
-45 54 -63 61 -148 85 -230 65z m171 -56 c23 -14 50 -35 58 -47 14 -20 14 -24
-7 -46 -30 -33 -114 -72 -157 -72 -60 0 -111 20 -154 60 l-41 38 25 27 c71 76
186 93 276 40z"/>
<path d="M6072 1497 c-45 -48 -14 -117 52 -117 26 0 40 7 56 27 54 69 -48 154
-108 90z"/>
<path d="M1274 1337 c-2 -7 -3 -102 -2 -212 l3 -200 570 0 570 0 0 210 0 210
-568 3 c-455 2 -569 0 -573 -11z"/>
<path d="M2529 992 c-49 -40 -17 -122 48 -122 68 0 99 78 47 119 -33 26 -65
27 -95 3z"/>
<path d="M6630 990 c-26 -26 -26 -81 -2 -103 28 -25 87 -22 106 5 17 24 21 65
8 84 -11 16 -48 34 -71 34 -12 0 -30 -9 -41 -20z"/>
</g>
</svg>
